<?xml version="1.0" encoding="UTF-8"?><svg id="Layer_1" xmlns="http://www.w3.org/2000/svg" viewBox="0 0 522.42 120.59" fill="#f4f4f4"><defs><style>.cls-1{fill-rule:evenodd;}</style></defs><path class="cls-1" d="M60.29,120.59c1.01,0,2.02-.02,3.01-.08V.08c-1-.05-2-.08-3.01-.08v120.59ZM73.11,119.22c1.86-.4,3.7-.89,5.49-1.46V2.83c-1.8-.57-3.62-1.06-5.49-1.46v117.85ZM86.13,114.78c2.7-1.28,5.29-2.76,7.75-4.41V10.22c-2.46-1.65-5.05-3.13-7.75-4.42v108.98ZM99.16,106.39c3.76-3.18,7.12-6.8,10.01-10.79V24.99c-2.89-4-6.25-7.61-10.01-10.79v92.18ZM112.19,91c5.33-8.99,8.4-19.49,8.4-30.7s-3.06-21.71-8.4-30.7v61.41Z"/><path class="cls-1" d="M48.23,119.38C20.71,113.79,0,89.46,0,60.29S20.72,6.79,48.23,1.2v34.06c-9.3,4.49-15.71,14.01-15.71,25.02s6.42,20.53,15.71,25.02v34.06Z"/><path d="M185.04,86.69c-4.47,0-8.62-.8-12.43-2.41-3.81-1.6-7.14-3.84-9.98-6.71-2.84-2.87-5.05-6.18-6.62-9.93-1.58-3.75-2.36-7.78-2.36-12.08s.76-8.34,2.28-12.13c1.52-3.78,3.67-7.11,6.45-9.98,2.78-2.87,6.09-5.12,9.93-6.75,3.84-1.63,8.08-2.45,12.73-2.45,4.93,0,9.16.77,12.68,2.32,3.53,1.55,6.64,3.93,9.33,7.14l-8.51,7.4c-3.61-3.78-8.11-5.68-13.5-5.68-3.84,0-7.18.92-10.02,2.75-2.84,1.84-5.03,4.27-6.58,7.31-1.55,3.04-2.32,6.39-2.32,10.06s.77,7.01,2.32,10.02c1.55,3.01,3.75,5.42,6.62,7.22,2.87,1.81,6.28,2.71,10.23,2.71,2.92,0,5.5-.49,7.74-1.46,2.24-.97,4.24-2.44,6.02-4.39l8.77,7.48c-2.29,2.75-5.35,5.03-9.16,6.84-3.81,1.81-8.36,2.71-13.63,2.71Z"/><path d="M229.76,86.69c-4.07,0-7.78-1.05-11.14-3.14-3.35-2.09-6.02-4.9-8-8.43-1.98-3.53-2.97-7.44-2.97-11.74,0-3.21.57-6.23,1.72-9.07,1.15-2.84,2.72-5.33,4.73-7.48,2.01-2.15,4.34-3.84,7.01-5.07,2.67-1.23,5.55-1.85,8.64-1.85,3.9,0,6.94.73,9.12,2.19,2.18,1.46,3.87,3.4,5.07,5.81v-7.05h11.52v44.72h-11.27v-7.31c-1.2,2.52-2.91,4.56-5.12,6.11-2.21,1.55-5.32,2.32-9.33,2.32ZM231.65,76.2c2.58,0,4.8-.59,6.67-1.76,1.86-1.17,3.31-2.74,4.34-4.69,1.03-1.95,1.55-4.07,1.55-6.36s-.52-4.5-1.55-6.45c-1.03-1.95-2.48-3.53-4.34-4.73-1.86-1.2-4.08-1.81-6.67-1.81s-4.63.59-6.49,1.76c-1.86,1.18-3.31,2.74-4.34,4.69-1.03,1.95-1.55,4.1-1.55,6.45s.52,4.34,1.55,6.32c1.03,1.98,2.48,3.57,4.34,4.77,1.86,1.2,4.03,1.81,6.49,1.81Z"/><path d="M262.35,85.57v-44.72h11.27v8.51c.74-3.21,2.26-5.66,4.56-7.35,2.29-1.69,5.39-2.42,9.29-2.19v10.92h-1.63c-3.33,0-6.14,1.06-8.43,3.18-2.29,2.12-3.44,5.05-3.44,8.77v22.88h-11.61Z"/><path d="M309.57,86.69c-4.07,0-7.78-1.05-11.14-3.14-3.35-2.09-6.02-4.9-8-8.43-1.98-3.53-2.97-7.44-2.97-11.74,0-3.21.57-6.23,1.72-9.07,1.15-2.84,2.72-5.33,4.73-7.48,2.01-2.15,4.34-3.84,7.01-5.07,2.67-1.23,5.55-1.85,8.64-1.85,3.84,0,6.85.72,9.03,2.15,2.18,1.43,3.87,3.33,5.07,5.68v-24.94h11.61v62.78h-11.27v-7.31c-1.2,2.52-2.91,4.56-5.12,6.11-2.21,1.55-5.32,2.32-9.33,2.32ZM311.46,76.2c2.58,0,4.8-.59,6.67-1.76,1.86-1.17,3.31-2.74,4.34-4.69,1.03-1.95,1.55-4.07,1.55-6.36s-.52-4.5-1.55-6.45c-1.03-1.95-2.48-3.53-4.34-4.73-1.86-1.2-4.08-1.81-6.67-1.81s-4.63.59-6.49,1.76c-1.86,1.18-3.31,2.74-4.34,4.69-1.03,1.95-1.55,4.1-1.55,6.45s.52,4.34,1.55,6.32c1.03,1.98,2.48,3.57,4.34,4.77,1.86,1.2,4.03,1.81,6.49,1.81Z"/><path d="M357.47,86.69c-7.51,0-13.7-2.61-18.58-7.83l7.83-7.14c3.27,3.67,6.76,5.5,10.49,5.5,2.01,0,3.54-.44,4.6-1.33,1.06-.89,1.59-1.99,1.59-3.31,0-.8-.19-1.49-.56-2.06-.37-.57-1.15-1.12-2.32-1.63-1.18-.52-2.94-1.03-5.29-1.55-4.01-.97-7-2.18-8.94-3.61-1.95-1.43-3.24-3.04-3.87-4.82-.63-1.78-.95-3.61-.95-5.5,0-3.9,1.48-7.15,4.43-9.76,2.95-2.61,7.04-3.91,12.25-3.91,3.61,0,6.71.55,9.29,1.63,2.58,1.09,5.02,3.13,7.31,6.11l-8.43,6.45c-1.09-1.72-2.31-2.95-3.66-3.7-1.35-.74-2.77-1.12-4.26-1.12-1.61,0-2.94.32-4,.95-1.06.63-1.59,1.63-1.59,3.01,0,.75.34,1.48,1.03,2.19.69.72,2.35,1.42,4.99,2.11,4.36,1.09,7.68,2.37,9.98,3.83s3.87,3.11,4.73,4.95,1.29,3.87,1.29,6.11c0,2.75-.76,5.22-2.28,7.4-1.52,2.18-3.58,3.9-6.19,5.16-2.61,1.26-5.58,1.89-8.9,1.89Z"/><path d="M405.89,85.57v-15.39h-29.07v-3.87l30.87-40.94h10.23v35.17h6.88v9.63h-6.88v15.39h-12.04ZM405.97,52.46c0-1.09.01-2.64.04-4.64.03-2.01.13-3.81.3-5.42-.57.98-1.16,1.92-1.76,2.84-.6.92-1.22,1.78-1.85,2.58l-9.8,12.73h13.07v-8.08Z"/><path d="M451.64,86.69c-4.59,0-8.64-1.06-12.17-3.18-3.53-2.12-6.28-4.94-8.26-8.47-1.98-3.53-2.97-7.44-2.97-11.74v-15.48c0-4.3.99-8.21,2.97-11.74,1.98-3.53,4.73-6.35,8.26-8.47,3.53-2.12,7.58-3.18,12.17-3.18s8.71,1.06,12.21,3.18c3.5,2.12,6.23,4.94,8.21,8.47,1.98,3.53,2.97,7.44,2.97,11.74v15.48c0,4.3-.99,8.21-2.97,11.74-1.98,3.53-4.72,6.35-8.21,8.47-3.5,2.12-7.57,3.18-12.21,3.18ZM451.64,75.51c3.73,0,6.48-1.29,8.26-3.87,1.78-2.58,2.67-5.82,2.67-9.72v-12.64c0-4.36-.89-7.73-2.67-10.1-1.78-2.38-4.53-3.57-8.26-3.57s-6.41,1.19-8.21,3.57c-1.81,2.38-2.71,5.75-2.71,10.1v12.64c0,3.9.9,7.14,2.71,9.72,1.81,2.58,4.54,3.87,8.21,3.87Z"/><path d="M479.5,85.57v-1.38l24.08-28.38c1.83-2.12,3.3-4.14,4.39-6.06,1.09-1.92,1.63-3.8,1.63-5.63,0-2.58-.77-4.67-2.32-6.28-1.55-1.6-3.73-2.41-6.54-2.41s-4.97.85-6.49,2.54c-1.52,1.69-2.28,4.08-2.28,7.18h-12.47c0-4.13.93-7.77,2.79-10.92,1.86-3.15,4.4-5.6,7.61-7.35,3.21-1.75,6.88-2.62,11.01-2.62s7.85.86,11.01,2.58c3.15,1.72,5.63,4.03,7.44,6.92,1.81,2.9,2.71,6.12,2.71,9.67,0,2.41-.37,4.69-1.12,6.84-.75,2.15-2.12,4.49-4.13,7.01l-9.37,12.21c-.75.98-1.56,1.95-2.45,2.92-.89.98-1.85,1.84-2.88,2.58h20.3v10.58h-42.91Z"/></svg>
